<svg width="135" height="32" viewBox="0 0 135 32" fill="none" xmlns="http://www.w3.org/2000/svg">
<rect width="32.0951" height="32" rx="4" fill="#142782"/>
<rect x="8.02441" y="7.33325" width="16.0469" height="1.99992" rx="0.999959" fill="white"/>
<rect x="21.0635" y="15.3328" width="3.00879" height="1.99992" rx="0.999959" fill="white"/>
<rect x="14.043" y="15.3328" width="5.01465" height="1.99992" rx="0.999959" fill="white"/>
<rect x="22.0664" y="19.3328" width="2.00586" height="1.99992" rx="0.999959" fill="white"/>
<rect x="19.0557" y="11.3328" width="5.01465" height="1.99992" rx="0.999959" fill="white"/>
<rect x="8.02441" y="19.3328" width="7.02051" height="1.99992" rx="0.999959" fill="white"/>
<rect x="12.0352" y="11.3328" width="5.01465" height="1.99992" rx="0.999959" fill="white"/>
<rect x="17.0498" y="19.3328" width="4.01172" height="1.99992" rx="0.999959" fill="white"/>
<rect x="18.0537" y="23.3325" width="6.01758" height="1.99992" rx="0.999959" fill="white"/>
<rect x="12.0352" y="23.3325" width="4.01172" height="1.99992" rx="0.999959" fill="white"/>
<rect x="8.02441" y="23.3325" width="2.00586" height="1.99992" rx="0.999959" fill="white"/>
<rect x="8.02441" y="11.3328" width="2.00586" height="1.99992" rx="0.999959" fill="white"/>
<rect x="8.02441" y="15.3328" width="4.01172" height="1.99992" rx="0.999959" fill="white"/>
<path d="M48.2573 25.9333C50.1743 25.9333 51.647 24.9685 52.4468 23.407H52.4976V25.6667H55.2524V7.34741H52.4976V14.5837H52.4468C51.647 13.0095 50.1235 12.0574 48.2319 12.0574C44.8804 12.0574 42.6714 14.7234 42.6714 18.9763V18.989C42.6714 23.2419 44.855 25.9333 48.2573 25.9333ZM48.981 23.572C46.8101 23.572 45.477 21.8328 45.477 18.989V18.9763C45.477 16.158 46.8228 14.406 48.981 14.406C51.0376 14.406 52.5103 16.2087 52.5103 18.9763V18.989C52.5103 21.7693 51.0503 23.572 48.981 23.572ZM61.9936 25.908C63.7583 25.908 65.3071 24.9939 66.0815 23.5593H66.1323V25.6667H68.8872V16.4626C68.8872 13.7839 66.8179 12.0574 63.5552 12.0574C60.2671 12.0574 58.2739 13.822 58.0835 16.1199L58.0708 16.2595H60.6606L60.686 16.1453C60.9145 15.0789 61.8921 14.3298 63.479 14.3298C65.1802 14.3298 66.1323 15.2185 66.1323 16.6912V17.6941L62.5015 17.9099C59.3403 18.1003 57.5376 19.5222 57.5376 21.8455V21.8708C57.5376 24.2703 59.3276 25.908 61.9936 25.908ZM60.3052 21.8074V21.782C60.3052 20.6521 61.2192 19.9285 62.8696 19.8269L66.1323 19.6238V20.6648C66.1323 22.4041 64.6724 23.7117 62.7427 23.7117C61.27 23.7117 60.3052 22.9753 60.3052 21.8074ZM76.2378 25.9333C76.7964 25.9333 77.3169 25.8699 77.6343 25.8191V23.699C77.4312 23.7244 77.1899 23.7498 76.8979 23.7498C75.7427 23.7498 75.1333 23.3435 75.1333 21.9851V14.4949H77.6343V12.3113H75.1333V8.83276H72.3276V12.3113H70.4106V14.4949H72.3276V22.1501C72.3276 24.8162 73.5972 25.9333 76.2378 25.9333ZM83.6265 25.908C85.3911 25.908 86.9399 24.9939 87.7144 23.5593H87.7651V25.6667H90.52V16.4626C90.52 13.7839 88.4507 12.0574 85.188 12.0574C81.8999 12.0574 79.9067 13.822 79.7163 16.1199L79.7036 16.2595H82.2935L82.3188 16.1453C82.5474 15.0789 83.5249 14.3298 85.1118 14.3298C86.813 14.3298 87.7651 15.2185 87.7651 16.6912V17.6941L84.1343 17.9099C80.9731 18.1003 79.1704 19.5222 79.1704 21.8455V21.8708C79.1704 24.2703 80.9604 25.908 83.6265 25.908ZM81.938 21.8074V21.782C81.938 20.6521 82.8521 19.9285 84.5024 19.8269L87.7651 19.6238V20.6648C87.7651 22.4041 86.3052 23.7117 84.3755 23.7117C82.9028 23.7117 81.938 22.9753 81.938 21.8074ZM93.186 30.1101H95.9282V23.4197H95.9917C96.7788 24.9685 98.3149 25.9333 100.207 25.9333C103.558 25.9333 105.754 23.2546 105.754 19.0017V18.989C105.754 14.7234 103.571 12.0574 100.168 12.0574C98.2642 12.0574 96.7915 13.0222 95.9917 14.6091H95.9282V12.3113H93.186V30.1101ZM99.4575 23.572C97.3882 23.572 95.9155 21.7693 95.9155 19.0017V18.989C95.9155 16.2087 97.3755 14.406 99.4575 14.406C101.603 14.406 102.961 16.1453 102.961 18.989V19.0017C102.961 21.8201 101.616 23.572 99.4575 23.572ZM111.81 25.908C113.575 25.908 115.124 24.9939 115.898 23.5593H115.949V25.6667H118.704V16.4626C118.704 13.7839 116.634 12.0574 113.372 12.0574C110.083 12.0574 108.09 13.822 107.9 16.1199L107.887 16.2595H110.477L110.502 16.1453C110.731 15.0789 111.708 14.3298 113.295 14.3298C114.997 14.3298 115.949 15.2185 115.949 16.6912V17.6941L112.318 17.9099C109.157 18.1003 107.354 19.5222 107.354 21.8455V21.8708C107.354 24.2703 109.144 25.908 111.81 25.908ZM110.122 21.8074V21.782C110.122 20.6521 111.036 19.9285 112.686 19.8269L115.949 19.6238V20.6648C115.949 22.4041 114.489 23.7117 112.559 23.7117C111.086 23.7117 110.122 22.9753 110.122 21.8074ZM126.359 25.9333C128.276 25.9333 129.749 24.9685 130.548 23.407H130.599V25.6667H133.354V7.34741H130.599V14.5837H130.548C129.749 13.0095 128.225 12.0574 126.333 12.0574C122.982 12.0574 120.773 14.7234 120.773 18.9763V18.989C120.773 23.2419 122.957 25.9333 126.359 25.9333ZM127.083 23.572C124.912 23.572 123.579 21.8328 123.579 18.989V18.9763C123.579 16.158 124.924 14.406 127.083 14.406C129.139 14.406 130.612 16.2087 130.612 18.9763V18.989C130.612 21.7693 129.152 23.572 127.083 23.572Z" fill="#051A2C"/>
</svg>
